# xmcd CD database file
#
# Track frame offsets:
#	150
#	14728
#	28064
#	42882
#	61790
#	83235
#	104523
#	122931
#	145968
#	160047
#	178970
#	196060
#	215206
#	234354
#	248653
#	262060
#	282003
#
# Disc length: 3973 seconds
#
# Revision: 3
# Processed by: cddbd v1.5.2PL0 Copyright (c) Steve Scherf et al.
# Submitted via: CDex 1.70beta2
#
DISCID=f80f8311
DTITLE=John Denver - Take Me Home Country Roads
DYEAR=1900
DGENRE=Country
TTITLE0=Take Me Home Country Roads
TTITLE1=Whispering Jesse
TTITLE2=For You
TTITLE3=Hold On To Me
TTITLE4=Eagles And Horses
TTITLE5=The Gift You Are
TTITLE6=Tenderly Calling
TTITLE7=Sunshine On My Shoulder
TTITLE8=Annie´s Song
TTITLE9=Rocky Mountain High
TTITLE10=Calypso
TTITLE11=Potter's Wheel
TTITLE12=To The Wild Country
TTITLE13=Home Grown Tomatoes
TTITLE14=Eagle And The Hawk
TTITLE15=Ponies
TTITLE16=Two Different Directions
EXTD=
EXTT0=
EXTT1=
EXTT2=
EXTT3=
EXTT4=
EXTT5=
EXTT6=
EXTT7=
EXTT8=
EXTT9=
EXTT10=
EXTT11=
EXTT12=
EXTT13=
EXTT14=
EXTT15=
EXTT16=
PLAYORDER=
